<svg width="260" height="200" style="overflow: hidden;" aria-label="A chart." xmlns="http://www.w3.org/2000/svg"><defs id="_ABSTRACT_RENDERER_ID_12"></defs><rect x="0" y="0" width="260" height="200" stroke="none" stroke-width="0" fill="#ffffff"></rect><g><rect x="177" y="20" width="83" height="42" stroke="none" stroke-width="0" fill-opacity="0" fill="#ffffff"></rect><g column-id="Screen1"><rect x="177" y="20" width="83" height="10" stroke="none" stroke-width="0" fill-opacity="0" fill="#ffffff"></rect><g><text text-anchor="start" x="191" y="28.5" font-family="Arial" font-size="10" stroke="none" stroke-width="0" fill="#000000">Screen1</text></g><circle cx="182" cy="25" r="5" stroke="none" stroke-width="0" fill="#3366cc"></circle></g><g column-id="Screen2"><rect x="177" y="36" width="83" height="10" stroke="none" stroke-width="0" fill-opacity="0" fill="#ffffff"></rect><g><text text-anchor="start" x="191" y="44.5" font-family="Arial" font-size="10" stroke="none" stroke-width="0" fill="#000000">Screen2</text></g><circle cx="182" cy="41" r="5" stroke="none" stroke-width="0" fill="#dc3912"></circle></g><g column-id="Screen3"><rect x="177" y="52" width="83" height="10" stroke="none" stroke-width="0" fill-opacity="0" fill="#ffffff"></rect><g><text text-anchor="start" x="191" y="60.5" font-family="Arial" font-size="10" stroke="none" stroke-width="0" fill="#000000">Screen3</text></g><circle cx="182" cy="57" r="5" stroke="none" stroke-width="0" fill="#ff9900"></circle></g></g><g><path d="M81,70L81,30A80,80,0,0,1,86.2983849542376,30.17564834665609L83.6491924771188,70.08782417332804A40,40,0,0,0,81,70" stroke="#ffffff" stroke-width="1" fill="#3366cc"></path></g><g><path d="M83.6491924771188,70.08782417332804L86.2983849542376,30.17564834665609A80,80,0,0,1,158.85715505596676,128.39193863058347L119.92857752798338,119.19596931529173A40,40,0,0,0,83.6491924771188,70.08782417332804" stroke="#ffffff" stroke-width="1" fill="#dc3912"></path><text text-anchor="start" x="134.81953758118775" y="73.74000251846387" font-family="Arial" font-size="10" stroke="none" stroke-width="0" fill="#000000">27.6%</text></g><g><path d="M119.92857752798338,119.19596931529173L158.85715505596676,128.39193863058347A80,80,0,1,1,81,30L80.99999999999999,70A40,40,0,1,0,119.92857752798338,119.19596931529173" stroke="#ffffff" stroke-width="1" fill="#ff9900"></path><text text-anchor="start" x="28.626110941896435" y="154.94325295378718" font-family="Arial" font-size="10" stroke="none" stroke-width="0" fill="#000000">71.3%</text></g><g></g></svg>