<svg width="260" height="200" style="overflow: hidden;" aria-label="A chart." xmlns="http://www.w3.org/2000/svg"><defs id="_ABSTRACT_RENDERER_ID_13"></defs><rect x="0" y="0" width="260" height="200" stroke="none" stroke-width="0" fill="#ffffff"></rect><g><rect x="177" y="20" width="83" height="26" stroke="none" stroke-width="0" fill-opacity="0" fill="#ffffff"></rect><g column-id="png"><rect x="177" y="20" width="83" height="10" stroke="none" stroke-width="0" fill-opacity="0" fill="#ffffff"></rect><g><text text-anchor="start" x="191" y="28.5" font-family="Arial" font-size="10" stroke="none" stroke-width="0" fill="#000000">png</text></g><circle cx="182" cy="25" r="5" stroke="none" stroke-width="0" fill="#3366cc"></circle></g><g column-id="jpg"><rect x="177" y="36" width="83" height="10" stroke="none" stroke-width="0" fill-opacity="0" fill="#ffffff"></rect><g><text text-anchor="start" x="191" y="44.5" font-family="Arial" font-size="10" stroke="none" stroke-width="0" fill="#000000">jpg</text></g><circle cx="182" cy="41" r="5" stroke="none" stroke-width="0" fill="#dc3912"></circle></g></g><g><path d="M46.35898384862245,130L11.717967697244902,150A80,80,0,0,1,81,30L80.99999999999999,70A40,40,0,0,0,46.35898384862245,130" stroke="#ffffff" stroke-width="1" fill="#dc3912"></path><text text-anchor="start" x="22.659381958056365" y="79.8170284687947" font-family="Arial" font-size="10" stroke="none" stroke-width="0" fill="#000000">33.3%</text></g><g><path d="M81,70L81,30A80,80,0,1,1,11.717967697244902,150L46.35898384862245,130A40,40,0,1,0,81,70" stroke="#ffffff" stroke-width="1" fill="#3366cc"></path><text text-anchor="start" x="139.34061804194363" y="147.1829715312053" font-family="Arial" font-size="10" stroke="none" stroke-width="0" fill="#000000">66.7%</text></g><g></g></svg>