<svg width="260" height="200" style="overflow: hidden;" aria-label="A chart." xmlns="http://www.w3.org/2000/svg"><defs id="_ABSTRACT_RENDERER_ID_15"></defs><rect x="0" y="0" width="260" height="200" stroke="none" stroke-width="0" fill="#ffffff"></rect><g><rect x="177" y="20" width="83" height="58" stroke="none" stroke-width="0" fill-opacity="0" fill="#ffffff"></rect><g column-id="Events"><rect x="177" y="20" width="83" height="10" stroke="none" stroke-width="0" fill-opacity="0" fill="#ffffff"></rect><g><text text-anchor="start" x="191" y="28.5" font-family="Arial" font-size="10" stroke="none" stroke-width="0" fill="#000000">Events</text></g><circle cx="182" cy="25" r="5" stroke="none" stroke-width="0" fill="#ffa726"></circle></g><g column-id="Methods"><rect x="177" y="36" width="83" height="10" stroke="none" stroke-width="0" fill-opacity="0" fill="#ffffff"></rect><g><text text-anchor="start" x="191" y="44.5" font-family="Arial" font-size="10" stroke="none" stroke-width="0" fill="#000000">Methods</text></g><circle cx="182" cy="41" r="5" stroke="none" stroke-width="0" fill="#5e35b1"></circle></g><g column-id="Properties"><rect x="177" y="52" width="83" height="10" stroke="none" stroke-width="0" fill-opacity="0" fill="#ffffff"></rect><g><text text-anchor="start" x="191" y="60.5" font-family="Arial" font-size="10" stroke="none" stroke-width="0" fill="#000000">Properties</text></g><circle cx="182" cy="57" r="5" stroke="none" stroke-width="0" fill="#388e3c"></circle></g><g column-id="Variables"><rect x="177" y="68" width="83" height="10" stroke="none" stroke-width="0" fill-opacity="0" fill="#ffffff"></rect><g><text text-anchor="start" x="191" y="76.5" font-family="Arial" font-size="10" stroke="none" stroke-width="0" fill="#000000">Variables</text></g><circle cx="182" cy="73" r="5" stroke="none" stroke-width="0" fill="#f4511e"></circle></g></g><g><path d="M81,70L81,30A80,80,0,0,1,145.89887929748738,63.22248974207624L113.44943964874369,86.61124487103812A40,40,0,0,0,81,70" stroke="#ffffff" stroke-width="1" fill="#ffa726"></path><text text-anchor="start" x="110.8523253782179" y="55.18460953675632" font-family="Arial" font-size="10" stroke="none" stroke-width="0" fill="#000000">15.1%</text></g><g><path d="M74.96702811354507,70.45757657632446L68.93405622709014,30.915153152648912A80,80,0,0,1,81,30L80.99999999999999,70A40,40,0,0,0,74.96702811354507,70.45757657632446" stroke="#ffffff" stroke-width="1" fill="#f4511e"></path><text text-anchor="start" x="76.08312577696267" y="48.672896752945334" font-family="Arial" font-size="10" stroke="none" stroke-width="0" fill="#000000">2.4%</text></g><g><path d="M67.63583314010441,147.7014461810269L54.27166628020882,185.40289236205382A80,80,0,0,1,68.93405622709014,30.915153152648912L74.96702811354507,70.45757657632446A40,40,0,0,0,67.63583314010441,147.7014461810269" stroke="#ffffff" stroke-width="1" fill="#388e3c"></path><text text-anchor="start" x="11.959881839292123" y="106.94742087863088" font-family="Arial" font-size="10" stroke="none" stroke-width="0" fill="#000000">42.2%</text></g><g><path d="M113.44943964874369,86.61124487103812L145.89887929748738,63.22248974207624A80,80,0,0,1,54.27166628020882,185.40289236205382L67.63583314010441,147.7014461810269A40,40,0,0,0,113.44943964874369,86.61124487103812" stroke="#ffffff" stroke-width="1" fill="#5e35b1"></path><text text-anchor="start" x="134.51032686788375" y="153.62920250228493" font-family="Arial" font-size="10" stroke="none" stroke-width="0" fill="#000000">40.4%</text></g><g></g></svg>