<svg width="260" height="200" style="overflow: hidden;" aria-label="A chart." xmlns="http://www.w3.org/2000/svg"><defs id="_ABSTRACT_RENDERER_ID_14"></defs><rect x="0" y="0" width="260" height="200" stroke="none" stroke-width="0" fill="#ffffff"></rect><g><rect x="177" y="20" width="83" height="26" stroke="none" stroke-width="0" fill-opacity="0" fill="#ffffff"></rect><g column-id="Built-in"><rect x="177" y="20" width="83" height="10" stroke="none" stroke-width="0" fill-opacity="0" fill="#ffffff"></rect><g><text text-anchor="start" x="191" y="28.5" font-family="Arial" font-size="10" stroke="none" stroke-width="0" fill="#000000">Built-in</text></g><circle cx="182" cy="25" r="5" stroke="none" stroke-width="0" fill="#3366cc"></circle></g><g column-id="Extensions"><rect x="177" y="36" width="83" height="10" stroke="none" stroke-width="0" fill-opacity="0" fill="#ffffff"></rect><g><text text-anchor="start" x="191" y="44.5" font-family="Arial" font-size="10" stroke="none" stroke-width="0" fill="#000000">Extensions</text></g><circle cx="182" cy="41" r="5" stroke="none" stroke-width="0" fill="#dc3912"></circle></g></g><g><path d="M77.01728613616731,70.19876898538395L73.03457227233463,30.3975379707679A80,80,0,0,1,81,30L80.99999999999999,70A40,40,0,0,0,77.01728613616731,70.19876898538395" stroke="#ffffff" stroke-width="1" fill="#dc3912"></path><text text-anchor="start" x="77.75972973597177" y="48.57503558373409" font-family="Arial" font-size="10" stroke="none" stroke-width="0" fill="#000000">1.6%</text></g><g><path d="M81,70L81,30A80,80,0,1,1,73.03457227233463,30.3975379707679L77.01728613616731,70.19876898538395A40,40,0,1,0,81,70" stroke="#ffffff" stroke-width="1" fill="#3366cc"></path><text text-anchor="start" x="84.24027026402821" y="178.4249644162659" font-family="Arial" font-size="10" stroke="none" stroke-width="0" fill="#000000">98.4%</text></g><g></g></svg>